<svg width="148" height="148" viewBox="0 0 148 148" fill="none" xmlns="http://www.w3.org/2000/svg">
<path fill-rule="evenodd" clip-rule="evenodd" d="M111 74C111 75.2266 110.513 76.403 109.645 77.2703C108.778 78.1377 107.602 78.625 106.375 78.625L52.7897 78.625L72.6495 98.4755C73.5179 99.3439 74.0058 100.522 74.0058 101.75C74.0058 102.978 73.5179 104.156 72.6495 105.024C71.781 105.893 70.6032 106.381 69.375 106.381C68.1468 106.381 66.9689 105.893 66.1005 105.024L38.3505 77.2745C37.9198 76.8448 37.5781 76.3345 37.3449 75.7726C37.1118 75.2107 36.9917 74.6083 36.9917 74C36.9917 73.3916 37.1118 72.7892 37.3449 72.2274C37.5781 71.6655 37.9198 71.1551 38.3505 70.7255L66.1005 42.9755C66.969 42.107 68.1468 41.6191 69.375 41.6191C70.6032 41.6191 71.781 42.107 72.6495 42.9755C73.518 43.8439 74.0058 45.0218 74.0058 46.25C74.0058 47.4781 73.518 48.656 72.6495 49.5245L52.7897 69.375L106.375 69.375C107.602 69.375 108.778 69.8622 109.645 70.7296C110.513 71.597 111 72.7733 111 74Z" fill="#130401"/>
</svg>
